<?xml version="1.0" encoding="utf-8"?>
<!-- Generator: Adobe Illustrator 24.2.0, SVG Export Plug-In . SVG Version: 6.00 Build 0)  -->
<svg version="1.1" id="Layer_1" xmlns="http://www.w3.org/2000/svg" xmlns:xlink="http://www.w3.org/1999/xlink" x="0px" y="0px"
	 viewBox="0 0 32 48" style="enable-background:new 0 0 32 48;" xml:space="preserve">
<style type="text/css">
	.st0{fill:#6BC6B3;}
	.st1{fill:#FFFFFF;}
</style>
<path class="st0" d="M27.3,4.4C21-1.5,11-1.5,4.7,4.4c-6.3,5.9-6.3,15.3,0,21.2C4.7,25.6,16,36,16,48c0-12,11.3-22.4,11.3-22.4
	C33.6,19.8,33.6,10.3,27.3,4.4z"/>
<path class="st1" d="M22.8,21.7c-0.3-1.6,0-3.3,0-4.9c0-1.8-0.3-3.6-0.3-5.3c0-1.4,0.2-3-0.2-4.3c0-0.1,0-0.3,0.1-0.5
	C22.5,6,20.1,6.4,19.7,7c-0.2,0.2-0.3,0.4-0.2,0.6c0,0,0,0.1,0,0.2c-0.4,2.2-1.1,4.2-1.8,6.3c-0.3,0.8-0.6,1.6-0.9,2.4
	c-0.4-0.7-0.8-1.5-1.1-2.3c-0.9-2.3-1.8-4.6-2.9-6.8c0.1-1-2.2-0.9-2.6,0C9.7,8.5,9.8,9.7,10,10.8c0.2,1.4,0.2,2.7,0.2,4.1
	c0,2.7,0.2,5.3,0.3,8c-0.2,0.3-0.3,0.6,0,0.9c0.1,0.1,0.2,0.2,0.4,0.4c0.6,0.5,2.4,0.1,2.4-0.9c0-2.8-0.2-5.5-0.3-8.3
	c0-0.3,0-0.5,0-0.8c0,0.1,0.1,0.2,0.1,0.3c0.4,1.1,0.9,2.1,1.5,3.1c0.6,1,0.9,2.1,1.2,3.1c-0.1,0.1-0.2,0.3-0.1,0.5
	c0,0.1,0,0.2,0.2,0.2c0.4,0.4,1.2,0.2,1.7,0c0.2-0.1,0.4-0.2,0.6-0.3c0.2-0.1,0.6-0.5,0.5-0.8c0,0,0-0.1,0-0.2
	c0.3-0.9,0.5-1.7,0.7-2.6c0.2-1,0.5-1.9,0.9-2.8c0,0.4,0,0.8,0.1,1.2c0.1,1.7,0,3.4,0,5.1c0,0.6,0,1.1,0.1,1.6
	c0,0.2,0.2,1.2,0.2,1.2c-0.4,0.4-0.3,0.9,0.2,1c0.6,0.1,1.4,0,1.9-0.5C23.4,23.8,23,22.6,22.8,21.7z"/>
</svg>
