<?xml version="1.0" encoding="utf-8"?>
<!-- Generator: Adobe Illustrator 24.2.0, SVG Export Plug-In . SVG Version: 6.00 Build 0)  -->
<svg version="1.1" id="Layer_1" xmlns="http://www.w3.org/2000/svg" xmlns:xlink="http://www.w3.org/1999/xlink" x="0px" y="0px"
	 viewBox="0 0 113 46" style="enable-background:new 0 0 113 46;" xml:space="preserve">
<style type="text/css">
	.st0{fill:#FFFFFF;}
</style>
<path d="M110.8,41.8c4.4,0.9,0.8-35.9,0.1-38.2c-2-6.6-26.8-2.1-32.4-1.7c-12.8,1-25.3-1-37.8-0.4c-6.2,0.3-35.1-1.8-37.7,2
	c-5,7.2-2.7,25.8-1.3,35.1c-4,0.8,2.3,4.2,3.1,4.9c6.3,2.2,16.5-0.2,23.1,0.4c15.5,1.5,32-2.2,47.5-1c4.5,1.1,9.7,1,14.3,1.2
	C93.3,49.6,109.6,41.6,110.8,41.8C110.7,41.8,111.3,41.9,110.8,41.8z"/>
<path class="st0" d="M26.2,24.3c-0.1-2.5-0.5-5.1-0.5-7.6c0-2.1,0.4-4.2-0.3-6.2c0-0.2,0.1-0.4,0.1-0.7c0.2-1-3.1-0.5-3.6,0.4
	c-0.3,0.3-0.5,0.6-0.4,0.9c0,0.1,0.1,0.2,0.1,0.2c-0.6,3-1.5,6-2.5,8.9c-0.4,1.1-0.8,2.2-1.2,3.4c-0.6-1-1.1-2.1-1.6-3.2
	c-1.3-3.3-2.5-6.6-4.1-9.7c0.2-1.5-3-1.3-3.7,0C7.6,12.4,7.7,14,8,15.7c0.3,1.9,0.3,3.8,0.4,5.8c0,3.8,0.3,7.5,0.4,11.3
	c-0.3,0.4-0.4,0.8-0.1,1.3c0.2,0.2,0.3,0.4,0.5,0.5c0.9,0.7,3.3,0.1,3.3-1.2c0-3.9-0.3-7.8-0.4-11.7c0-0.4,0-0.8,0-1.1
	c0.1,0.1,0.1,0.3,0.2,0.4c0.6,1.5,1.2,3,2.1,4.4c0.8,1.4,1.2,2.9,1.7,4.4c-0.2,0.2-0.3,0.4-0.2,0.7c0,0.2,0.1,0.3,0.2,0.3
	c0.6,0.5,1.7,0.3,2.4,0c0.3-0.1,0.5-0.2,0.8-0.4c0.3-0.2,0.8-0.6,0.7-1.1c0-0.1-0.1-0.2-0.1-0.3c0.4-1.2,0.7-2.5,0.9-3.7
	c0.3-1.4,0.7-2.6,1.2-3.9c0,0.6,0.1,1.2,0.1,1.8c0.2,2.4,0,4.8,0,7.2c0,0.8,0.1,1.5,0.2,2.3c0.1,0.3,0.3,1.7,0.3,1.8
	c-0.6,0.5-0.4,1.2,0.4,1.4c0.9,0.2,2-0.1,2.6-0.7c1.1-1,0.6-2.7,0.3-4C25.7,29.1,26.3,26.6,26.2,24.3z"/>
<path class="st0" d="M34.1,25c-0.1-1.9-0.7-3.7-0.7-5.6c0-2.2,0.2-4.4-0.1-6.5c-0.1-0.7-3.8,0.1-3.7,1c0.3,2,0.2,4,0.2,6
	c0,1.9,0.4,3.7,0.7,5.6c0.3,2-0.1,3.9,0.1,5.9c0.1,0.9,0.7,2.6,0.1,3.4c-0.4,0.5,1.4,0.3,1.5,0.3c0.7-0.1,1.7-0.4,2.2-1
	c0.6-0.8,0.2-2.3,0.1-3.2C34,29,34.2,26.9,34.1,25z"/>
<path class="st0" d="M49.7,21.8c-2-2.6-5.6-0.7-8.1-1.5c-1.3-0.4-1.3-2.2-1.3-3.2c0-1.4-0.1-2.6-0.3-3.9c-0.1-1,0-2,0.7-2.8
	c0.1-0.1,0.8-0.3,0.8-0.3c0.3-0.1,0.6-0.1,1-0.1c1.5-0.1,4.4,0.2,3.8,2.4c-0.3,1,3.4,0.4,3.7-0.6c1.2-4.4-6.9-3.5-9.2-2.9
	c-2.1,0.6-4.4,1.8-4.5,4.2c-0.1,1.2,0.3,2.3,0.3,3.4c0.1,1.3-0.2,2.6,0.3,3.9c1,2.8,5.2,1.5,7.4,1.7c3.6,0.3,2.6,5.2,2.6,7.5
	c0,1.2,1.1,3.3,0.2,4.3c-0.6,0.6-1.9,0.7-2.6,0.7c-0.8,0.1-2.1,0.3-2.6-0.4c-0.9-1.3,0.1-3.6-0.1-5.1c-0.1-0.9-3.9-0.1-3.7,1
	c0.3,2.5-1.3,5.8,2.3,6.3c2.3,0.3,4.9-0.2,7.1-0.9c1.1-0.4,2.2-0.9,3.1-1.7c1-0.9,0.7-2.2,0.4-3.4C50.2,27.4,51.5,24.2,49.7,21.8z"
	/>
<path class="st0" d="M66.3,21.6c-0.1-3.6-0.7-7.1-0.7-10.7c0-1.9-3.8-1.2-3.8,0.3c0,3.4,0.5,6.8,0.6,10.2c0,0.1,0,0.1,0,0.2
	c-1.8,0-3.7,0.2-5.6,0.2c0.2-4.4-0.6-8.8-0.4-13.1c0-0.6-3.7-0.1-3.7,1c-0.2,4.2,0.6,8.5,0.4,12.7c-0.1,2-0.2,4-0.2,6.1
	c0,1,0.2,2.1,0.3,3.1c0.1,0.9,0.5,2.2,0.2,3.1c-0.2,0.7,3.4,0.3,3.7-0.7c0.5-1.7-0.2-3.8-0.4-5.5c-0.2-1.6,0-3.3,0.1-5
	c1.9-0.1,3.9-0.3,5.8,0c0.1,1.3,0.2,2.6,0.3,3.9c0.1,1.1,0.2,2.2,0.2,3.3c0,1,0.1,2.4-0.2,3.3c-0.7,2,3,1.8,3.5,0.3
	c0.7-1.8,0.5-4,0.4-5.8C66.7,26.3,66.3,23.9,66.3,21.6z"/>
<path class="st0" d="M82.4,25.9c-0.9-2.6-2.3-4.9-3.4-7.4c1-1.9,1.9-3.7,2.8-5.6c0.8-1.7,1.4-3.6,2.9-4.8c0.5-0.4,0.5-0.8-0.2-0.9
	c-0.8-0.1-2,0.2-2.6,0.7c-1.4,1.1-2.3,2.4-3,4.1C78,14,77.1,16,76.1,17.8c-0.1,0.1-0.1,0.3-0.2,0.4c-0.5,0.3-0.7,0.7-0.6,1.2
	c-0.8,1.5-1.5,3-2.4,4.4c-0.3-5.3-0.9-10.5-1.1-15.8c0-1.2-3.8-0.5-3.7,1c0.2,6.5,1.2,13,1.2,19.5c-0.3,0.3-0.2,0.5,0.1,0.6
	c0,1.7-0.1,3.3-0.2,5c-0.4,0.7,0.4,1.1,1,1.1h0.1c0.7,0,2.5-0.3,2.6-1.3c0.2-2,0.2-4,0.2-6c1.5-1.6,2.7-3.4,3.8-5.3
	c0.7,1.4,1.4,2.8,1.9,4.3c0.8,2.6,2.2,5,3,7.6c0.5,1.7,4.2,0.7,3.7-1C84.6,30.9,83.3,28.5,82.4,25.9z"/>
<path class="st0" d="M104.8,21.5c-0.2-0.8-1.3-0.8-2.2-0.7c0-0.3,0-0.6,0-1c-0.1-2.5-0.2-5.1-0.4-7.6c-0.2-2.3-1.5-3.2-3.8-3.1
	c-2.3,0.1-5,0.5-7.1,1.3c-2.5,1-3.9,2.8-4.3,5.4c-0.5,2.9,0.2,5.9,0.4,8.8c0.1,3.3,0.1,6.7,0.1,10c0,0.5,3.7,0,3.7-1
	c0-2.6,0-5.3,0-7.9c0-0.8,0-1.5-0.1-2.3c1.3-0.6,3.5,0,4.8,0.1c1.1,0.1,2.1-0.2,3.1-0.3c0,2.2,0.1,4.4,0.2,6.6
	c0,1.1,0.5,3.4-0.3,4.3c-0.4,0.5,1.4,0.3,1.5,0.3c0.8-0.1,1.7-0.4,2.2-1c0.9-1.1,0.4-3.6,0.4-4.9c-0.1-1.8-0.1-3.6-0.1-5.4
	C103.8,23,105,22.3,104.8,21.5z M90.9,21.3c-0.1-1.2-0.2-2.4-0.3-3.6c-0.2-2.2,0.1-5.3,2.2-6.6c0.6-0.4,1.6-0.3,2.2-0.4
	c0.9-0.2,1.9-0.4,2.7,0.2c1.1,0.8,0.9,3.5,0.9,4.6c0,1.9,0.2,3.8,0.3,5.7c-0.5,0.1-1.1,0.1-1.6,0.1C95.2,21.2,93,20.9,90.9,21.3z"/>
<path class="st0" d="M30.9,10.4c0.5,0,1-0.2,1.4-0.5c0.1-0.1,0.2-0.1,0.2-0.2c0.5-0.3,0.9-0.8,0.7-1.3c-0.5-1-0.4-2.1-0.4-3.2
	c0-0.9-0.9-1.2-1.7-1.1C30.4,4.2,29,4.7,29,5.5c0,0.9-0.1,1.9,0.1,2.8c0,0.1-0.1,0.2-0.1,0.3c-0.1,0.2,0,0.4,0.1,0.6v0.1
	c0,0.1,0,0.2,0,0.3c0.1,0.2,0.2,0.4,0.4,0.5C30,10.4,30.5,10.4,30.9,10.4z"/>
</svg>
