<svg xmlns="http://www.w3.org/2000/svg" viewBox="0 0 3000 34"><path d="M3000 14c-15.7 0-15.7-14-31.3-14s-15.7 14-31.3 14c-15.7 0-15.7-14-31.3-14-15.7 0-15.7 14-31.3 14-15.7 0-15.7-14-31.3-14-15.7 0-15.7 14-31.3 14s-15.7-14-31.3-14c-15.7 0-15.7 14-31.2 14-15.7 0-15.7-14-31.3-14-15.7 0-15.7 14-31.3 14-15.7 0-15.7-14-31.3-14-15.7 0-15.7 14-31.3 14-15.7 0-15.7-14-31.3-14-15.2 0-15.2 14-30.9 14s-15.7-14-31.2-14-15.7 14-31.3 14c-15.6 0-15.6-14-31.2-14s-15.6 14-31.2 14c-15.5 0-15.6-14-31.2-14-15.5 0-15.6 14-31.2 14s-15.6-14-31.3-14c-15.6 0-15.6 14-31.2 14-15.7 0-15.7-14-31.2-14-15.7 0-15.7 14-31.2 14s-16-14-31.5-14c-15.7 0-15.7 14-31.2 14s-15.8-14-31.3-14c-15.7 0-15.7 14-31.2 14-15.7 0-15.7-14-31.3-14s-15.7 14-31.2 14c-15.7 0-15.7-14-31.2-14s-15.8 14-31.4 14-15.7-14-31.2-14c-15.7 0-15.7 14-31.2 14-15.7 0-15.7-14-31.3-14-15.7 0-15.7 14-31.2 14-15.7 0-15.7-14-31.2-14-15.7 0-15.7 14-31.2 14-15.7 0-15.7-14-31.2-14-15.7 0-15.7 14-31.3 14-15.7 0-15.7-14-31.3-14-15.7 0-15.7 14-31.3 14s-15.7-14-31.3-14c-15.7 0-15.7 14-31.3 14-15.7 0-15.7-14-31.3-14-15.7 0-15.7 14-31.3 14-15.7 0-15.7-14-31.3-14s-15.7 14-31.2 14c-15.7 0-15.7-14-31.3-14s-15.7 14-31.3 14c-15.7 0-15.7-14-31.3-14-15.7 0-15.7 14-31.3 14-15.7 0-15.7-14-31.3-14-15.2 0-15.2 14-30.9 14s-15.7-14-31.2-14-15.7 14-31.3 14c-15.6 0-15.6-14-31.2-14s-15.6 14-31.2 14c-15.5 0-15.6-14-31.2-14-15.5 0-15.6 14-31.2 14s-15.6-14-31.3-14c-15.6 0-15.6 14-31.2 14-15.7 0-15.7-14-31.2-14-15.7 0-15.7 14-31.2 14s-16-14-31.5-14c-15.7 0-15.7 14-31.2 14-15.4 0-15.6-14-31.2-14-15.7 0-15.7 14-31.2 14-15.7 0-15.7-14-31.3-14S828 14 812.5 14c-15.7 0-15.7-14-31.2-14s-15.8 14-31.4 14c-15.7 0-15.7-14-31.2-14C703 0 703 14 687.5 14c-15.7 0-15.7-14-31.3-14S640.5 14 625 14c-15.7 0-15.7-14-31.2-14-15.7 0-15.7 14-31.2 14C547 14 547 0 531.5 0c-15.7 0-15.7 14-31.3 14-15.7 0-15.7-14-31.3-14-15.7 0-15.7 14-31.3 14S421.9 0 406.3 0c-15.7 0-15.7 14-31.3 14-15.7 0-15.7-14-31.3-14C328 0 328 14 312.4 14c-15.7 0-15.7-14-31.3-14-15.7 0-15.7 14-31.2 14-15.7 0-15.7-14-31.3-14-15.7 0-15.7 14-31.3 14-15.7 0-15.7-14-31.3-14-15.7 0-15.7 14-31.3 14C109 14 109 0 93.4 0 78.1 0 78.1 14 62.5 14 46.8 14 46.8 0 31.3 0S15.7 14 0 14v20h3000V14z" fill="#fff"/></svg>
