<?xml version="1.0" encoding="utf-8"?>
<!-- Generator: Adobe Illustrator 24.2.0, SVG Export Plug-In . SVG Version: 6.00 Build 0)  -->
<svg version="1.1" id="Layer_1" xmlns="http://www.w3.org/2000/svg" xmlns:xlink="http://www.w3.org/1999/xlink" x="0px" y="0px"
	 viewBox="0 0 1080 17" style="enable-background:new 0 0 1080 17;" xml:space="preserve">
<style type="text/css">
	.st0{fill:#F1F1F1;}
</style>
<g>
	<path class="st0" d="M1060.7,0c-6.3,0-9.6,3.4-12.2,6.1c-2.3,2.4-3.8,3.9-7.1,3.9c-3.3,0-4.8-1.6-7.1-3.9
		c-2.6-2.7-5.9-6.1-12.2-6.1c-6.3,0-9.6,3.4-12.2,6.1c-2.3,2.4-3.8,3.9-7.1,3.9c-3.3,0-4.8-1.6-7.1-3.9c-2.6-2.7-5.9-6.1-12.2-6.1
		s-9.6,3.4-12.2,6.1c-2.3,2.4-3.8,3.9-7.1,3.9c-3.3,0-4.8-1.6-7.1-3.9C954.5,3.4,951.3,0,945,0c-6.3,0-9.6,3.4-12.2,6.1
		c-2.3,2.4-3.8,3.9-7.1,3.9s-4.8-1.6-7.1-3.9c-2.6-2.7-5.9-6.1-12.2-6.1c-6.3,0-9.6,3.4-12.2,6.1c-2.3,2.4-3.8,3.9-7.1,3.9
		s-4.8-1.6-7.1-3.9c-2.6-2.7-5.9-6.1-12.2-6.1s-9.6,3.4-12.2,6.1c-2.3,2.4-3.8,3.9-7.1,3.9c-3.3,0-4.8-1.6-7.1-3.9
		c-2.6-2.7-5.9-6.1-12.2-6.1c-6.3,0-9.6,3.4-12.2,6.1c-2.3,2.4-3.8,3.9-7.1,3.9s-4.8-1.6-7.1-3.9C800.2,3.4,797,0,790.7,0
		c-6.3,0-9.6,3.4-12.2,6.1c-2.3,2.4-3.8,3.9-7.1,3.9s-4.8-1.6-7.1-3.9c-2.6-2.7-5.9-6.1-12.2-6.1s-9.6,3.4-12.2,6.1
		c-2.3,2.4-3.8,3.9-7.1,3.9c-3.3,0-4.8-1.6-7.1-3.9c-2.6-2.7-5.9-6.1-12.2-6.1s-9.6,3.4-12.2,6.1c-2.3,2.4-3.8,3.9-7.1,3.9
		c-3.3,0-4.8-1.6-7.1-3.9c-2.6-2.7-5.9-6.1-12.2-6.1s-9.6,3.4-12.2,6.1c-2.3,2.4-3.8,3.9-7.1,3.9c-3.3,0-4.8-1.6-7.1-3.9
		c-2.6-2.7-5.9-6.1-12.2-6.1s-9.6,3.4-12.2,6.1c-2.3,2.4-3.8,3.9-7.1,3.9c-3.3,0-4.8-1.6-7.1-3.9c-2.6-2.7-5.9-6.1-12.2-6.1
		s-9.6,3.4-12.2,6.1c-2.3,2.4-3.8,3.9-7.1,3.9s-4.8-1.6-7.1-3.9c-2.6-2.7-5.9-6.1-12.2-6.1c-6.3,0-9.6,3.4-12.2,6.1
		c-2.3,2.4-3.8,3.9-7.1,3.9c-3.3,0-4.8-1.6-7.1-3.9C530.2,3.4,527,0,520.7,0c-6.3,0-9.6,3.4-12.2,6.1c-2.3,2.4-3.8,3.9-7.1,3.9
		c-3.3,0-4.8-1.6-7.1-3.9c-2.6-2.7-5.9-6.1-12.2-6.1c-6.3,0-9.6,3.4-12.2,6.1c-2.3,2.4-3.8,3.9-7.1,3.9c-3.3,0-4.8-1.6-7.1-3.9
		c-2.6-2.7-5.9-6.1-12.2-6.1c-6.3,0-9.6,3.4-12.2,6.1c-2.3,2.4-3.8,3.9-7.1,3.9c-3.3,0-4.8-1.6-7.1-3.9C414.5,3.4,411.3,0,405,0
		c-6.3,0-9.6,3.4-12.2,6.1c-2.3,2.4-3.8,3.9-7.1,3.9c-3.3,0-4.8-1.6-7.1-3.9c-2.6-2.7-5.9-6.1-12.2-6.1c-6.3,0-9.6,3.4-12.2,6.1
		c-2.3,2.4-3.8,3.9-7.1,3.9c-3.3,0-4.8-1.6-7.1-3.9c-2.6-2.7-5.9-6.1-12.2-6.1s-9.6,3.4-12.2,6.1c-2.3,2.4-3.8,3.9-7.1,3.9
		c-3.3,0-4.8-1.6-7.1-3.9c-2.6-2.7-5.9-6.1-12.2-6.1c-6.3,0-9.6,3.4-12.2,6.1c-2.3,2.4-3.8,3.9-7.1,3.9s-4.8-1.6-7.1-3.9
		C260.3,3.4,257,0,250.7,0c-6.3,0-9.6,3.4-12.2,6.1c-2.3,2.4-3.8,3.9-7.1,3.9s-4.8-1.6-7.1-3.9c-2.6-2.7-5.9-6.1-12.2-6.1
		s-9.6,3.4-12.2,6.1c-2.3,2.4-3.8,3.9-7.1,3.9c-3.3,0-4.8-1.6-7.1-3.9c-2.6-2.7-5.9-6.1-12.2-6.1c-6.3,0-9.6,3.4-12.2,6.1
		c-2.3,2.4-3.8,3.9-7.1,3.9c-3.3,0-4.8-1.6-7.1-3.9C144.5,3.4,141.3,0,135,0c-6.3,0-9.6,3.4-12.2,6.1c-2.3,2.4-3.8,3.9-7.1,3.9
		c-3.3,0-4.8-1.6-7.1-3.9C106,3.4,102.7,0,96.4,0s-9.6,3.4-12.2,6.1C82,8.4,80.5,10,77.1,10S72.3,8.4,70,6.1C67.4,3.4,64.2,0,57.9,0
		s-9.6,3.4-12.2,6.1c-2.3,2.4-3.8,3.9-7.1,3.9c-3.3,0-4.8-1.6-7.1-3.9C28.8,3.4,25.6,0,19.3,0C13,0,9.7,3.4,7.1,6.1
		C4.8,8.4,3.3,10,0,10v7c6.3,0,9.6-3.4,12.2-6.1C14.4,8.6,15.9,7,19.3,7c3.3,0,4.8,1.6,7.1,3.9C29,13.6,32.3,17,38.6,17
		c6.3,0,9.6-3.4,12.2-6.1C53,8.6,54.5,7,57.9,7c3.3,0,4.8,1.6,7.1,3.9c2.6,2.7,5.9,6.1,12.2,6.1s9.6-3.4,12.2-6.1
		C91.6,8.6,93.1,7,96.4,7s4.8,1.6,7.1,3.9c2.6,2.7,5.9,6.1,12.2,6.1c6.3,0,9.6-3.4,12.2-6.1c2.3-2.4,3.8-3.9,7.1-3.9
		s4.8,1.6,7.1,3.9c2.6,2.7,5.9,6.1,12.2,6.1c6.3,0,9.6-3.4,12.2-6.1c2.3-2.4,3.8-3.9,7.1-3.9s4.8,1.6,7.1,3.9
		c2.6,2.7,5.9,6.1,12.2,6.1c6.3,0,9.6-3.4,12.2-6.1c2.3-2.4,3.8-3.9,7.1-3.9s4.8,1.6,7.1,3.9c2.6,2.7,5.9,6.1,12.2,6.1
		c6.3,0,9.6-3.4,12.2-6.1c2.3-2.4,3.8-3.9,7.1-3.9c3.3,0,4.8,1.6,7.1,3.9c2.6,2.7,5.9,6.1,12.2,6.1s9.6-3.4,12.2-6.1
		c2.3-2.4,3.8-3.9,7.1-3.9c3.3,0,4.8,1.6,7.1,3.9c2.6,2.7,5.9,6.1,12.2,6.1s9.6-3.4,12.2-6.1c2.3-2.4,3.8-3.9,7.1-3.9
		s4.8,1.6,7.1,3.9c2.6,2.7,5.9,6.1,12.2,6.1c6.3,0,9.6-3.4,12.2-6.1c2.3-2.4,3.8-3.9,7.1-3.9c3.3,0,4.8,1.6,7.1,3.9
		c2.6,2.7,5.9,6.1,12.2,6.1c6.3,0,9.6-3.4,12.2-6.1c2.3-2.4,3.8-3.9,7.1-3.9c3.3,0,4.8,1.6,7.1,3.9c2.6,2.7,5.9,6.1,12.2,6.1
		c6.3,0,9.6-3.4,12.2-6.1c2.3-2.4,3.8-3.9,7.1-3.9s4.8,1.6,7.1,3.9c2.6,2.7,5.9,6.1,12.2,6.1c6.3,0,9.6-3.4,12.2-6.1
		c2.3-2.4,3.8-3.9,7.1-3.9c3.3,0,4.8,1.6,7.1,3.9c2.6,2.7,5.9,6.1,12.2,6.1c6.3,0,9.6-3.4,12.2-6.1c2.3-2.4,3.8-3.9,7.1-3.9
		c3.3,0,4.8,1.6,7.1,3.9c2.6,2.7,5.9,6.1,12.2,6.1c6.3,0,9.6-3.4,12.2-6.1c2.3-2.4,3.8-3.9,7.1-3.9c3.3,0,4.8,1.6,7.1,3.9
		c2.6,2.7,5.9,6.1,12.2,6.1c6.3,0,9.6-3.4,12.2-6.1c2.3-2.4,3.8-3.9,7.1-3.9s4.8,1.6,7.1,3.9c2.6,2.7,5.9,6.1,12.2,6.1
		c6.3,0,9.6-3.4,12.2-6.1c2.3-2.4,3.8-3.9,7.1-3.9s4.8,1.6,7.1,3.9c2.6,2.7,5.9,6.1,12.2,6.1c6.3,0,9.6-3.4,12.2-6.1
		c2.3-2.4,3.8-3.9,7.1-3.9c3.3,0,4.8,1.6,7.1,3.9c2.6,2.7,5.9,6.1,12.2,6.1s9.6-3.4,12.2-6.1c2.3-2.4,3.8-3.9,7.1-3.9
		c3.3,0,4.8,1.6,7.1,3.9c2.6,2.7,5.9,6.1,12.2,6.1s9.6-3.4,12.2-6.1c2.3-2.4,3.8-3.9,7.1-3.9c3.3,0,4.8,1.6,7.1,3.9
		c2.6,2.7,5.9,6.1,12.2,6.1c6.3,0,9.6-3.4,12.2-6.1c2.3-2.4,3.8-3.9,7.1-3.9s4.8,1.6,7.1,3.9c2.6,2.7,5.9,6.1,12.2,6.1
		c6.3,0,9.6-3.4,12.2-6.1c2.3-2.4,3.8-3.9,7.1-3.9s4.8,1.6,7.1,3.9c2.6,2.7,5.9,6.1,12.2,6.1c6.3,0,9.6-3.4,12.2-6.1
		c2.3-2.4,3.8-3.9,7.1-3.9s4.8,1.6,7.1,3.9c2.6,2.7,5.9,6.1,12.2,6.1c6.3,0,9.6-3.4,12.2-6.1c2.3-2.4,3.8-3.9,7.1-3.9
		c3.3,0,4.8,1.6,7.1,3.9c2.6,2.7,5.9,6.1,12.2,6.1s9.6-3.4,12.2-6.1c2.3-2.4,3.8-3.9,7.1-3.9s4.8,1.6,7.1,3.9
		c2.6,2.7,5.9,6.1,12.2,6.1s9.6-3.4,12.2-6.1c2.3-2.4,3.8-3.9,7.1-3.9s4.8,1.6,7.1,3.9c2.6,2.7,5.9,6.1,12.2,6.1
		c6.3,0,9.6-3.4,12.2-6.1c2.3-2.4,3.8-3.9,7.1-3.9c3.3,0,4.8,1.6,7.1,3.9c2.6,2.7,5.9,6.1,12.2,6.1c6.3,0,9.6-3.4,12.2-6.1
		c2.3-2.4,3.8-3.9,7.1-3.9s4.8,1.6,7.1,3.9c2.6,2.7,5.9,6.1,12.2,6.1v-7c-3.3,0-4.8-1.6-7.1-3.9C1070.3,3.4,1067,0,1060.7,0z"/>
</g>
</svg>
