<svg xmlns="http://www.w3.org/2000/svg" viewBox="0 0 1155.1 24"><path d="M1135.8 0c-9.6 0-9.6 9.9-19.2 9.9S1107 0 1097.4 0s-9.6 9.9-19.3 9.9c-9.6 0-9.6-9.9-19.3-9.9-9.6 0-9.6 9.9-19.3 9.9s-9.6-9.9-19.3-9.9c-9.6 0-9.6 9.9-19.3 9.9-9.6 0-9.6-9.9-19.3-9.9-9.6 0-9.6 9.9-19.3 9.9-9.6 0-9.6-9.9-19.3-9.9-9.6 0-9.6 9.9-19.2 9.9S914.2 0 904.5 0c-9.6 0-9.6 9.9-19.3 9.9-9.6 0-9.6-9.9-19.3-9.9-9.6 0-9.6 9.9-19.3 9.9C837 9.9 837 0 827.3 0c-9.4 0-9.4 9.9-19 9.9S798.7 0 789.1 0s-9.6 9.9-19.3 9.9c-9.6 0-9.6-9.9-19.2-9.9s-9.6 9.9-19.2 9.9S721.9 0 712.3 0c-9.6 0-9.6 9.9-19.2 9.9S683.5 0 673.8 0c-9.6 0-9.6 9.9-19.2 9.9S645 0 635.4 0s-9.6 9.9-19.2 9.9S606.3 0 596.7 0s-9.6 9.9-19.2 9.9S567.8 0 558.3 0c-9.6 0-9.6 9.9-19.2 9.9S529.5 0 519.8 0c-9.6 0-9.6 9.9-19.2 9.9S491 0 481.4 0s-9.7 9.9-19.3 9.9c-9.6 0-9.6-9.9-19.2-9.9s-9.6 9.9-19.2 9.9S414.1 0 404.4 0c-9.6 0-9.6 9.9-19.2 9.9S375.6 0 366 0s-9.6 9.9-19.2 9.9C337 9.9 337 0 327.4 0c-9.6 0-9.6 9.9-19.3 9.9-9.6 0-9.6-9.9-19.3-9.9-9.6 0-9.6 9.9-19.3 9.9-9.6 0-9.6-9.9-19.3-9.9-9.6 0-9.6 9.9-19.3 9.9-9.6 0-9.6-9.9-19.3-9.9-9.6 0-9.6 9.9-19.3 9.9-9.6 0-9.6-9.9-19.3-9.9-9.6 0-9.6 9.9-19.2 9.9S144.2 0 134.5 0c-9.6 0-9.6 9.9-19.3 9.9-9.6 0-9.6-9.9-19.3-9.9-9.6 0-9.6 9.9-19.3 9.9-9.4 0-9.4-9.9-19.1-9.9-9.4 0-9.4 9.9-19 9.9S28.9 0 19.3 0 9.6 9.9 0 9.9V24h1154.9l.1-14.1c-9.6 0-9.6-9.9-19.2-9.9z" fill="#fff"/></svg>