<?xml version="1.0" encoding="utf-8"?>
<!-- Generator: Adobe Illustrator 24.2.0, SVG Export Plug-In . SVG Version: 6.00 Build 0)  -->
<svg version="1.1" id="Layer_1" xmlns="http://www.w3.org/2000/svg" xmlns:xlink="http://www.w3.org/1999/xlink" x="0px" y="0px"
	 viewBox="0 0 800 6" style="enable-background:new 0 0 800 6;" xml:space="preserve">
<style type="text/css">
	.st0{fill:#F1F1F1;}
</style>
<path class="st0" d="M800,3c-1.5,0-2.2-0.5-3.1-1.2C795.8,1,794.5,0,792,0c-2.5,0-3.8,1-4.9,1.8C786.2,2.5,785.5,3,784,3
	c-1.5,0-2.2-0.5-3.1-1.2C779.8,1,778.5,0,776,0c-2.5,0-3.8,1-4.9,1.8C770.2,2.5,769.5,3,768,3c-1.5,0-2.2-0.5-3.1-1.2
	C763.8,1,762.5,0,760,0c-2.5,0-3.8,1-4.9,1.8C754.2,2.5,753.5,3,752,3s-2.2-0.5-3.1-1.2C747.8,1,746.5,0,744,0c-2.5,0-3.8,1-4.9,1.8
	C738.2,2.5,737.5,3,736,3s-2.2-0.5-3.1-1.2C731.8,1,730.5,0,728,0c-2.5,0-3.8,1-4.9,1.8C722.2,2.5,721.5,3,720,3
	c-1.5,0-2.2-0.5-3.1-1.2C715.8,1,714.5,0,712,0c-2.5,0-3.8,1-4.9,1.8C706.2,2.5,705.5,3,704,3c-1.5,0-2.2-0.5-3.1-1.2
	C699.8,1,698.5,0,696,0c-2.5,0-3.8,1-4.9,1.8C690.2,2.5,689.5,3,688,3s-2.2-0.5-3.1-1.2C683.9,1,682.5,0,680,0c-2.5,0-3.8,1-4.9,1.8
	C674.2,2.5,673.5,3,672,3s-2.2-0.5-3.1-1.2C667.9,1,666.5,0,664,0s-3.8,1-4.9,1.8C658.2,2.5,657.5,3,656,3c-1.5,0-2.2-0.5-3.1-1.2
	C651.9,1,650.5,0,648,0s-3.8,1-4.9,1.8C642.2,2.5,641.5,3,640,3c-1.5,0-2.2-0.5-3.1-1.2C635.9,1,634.5,0,632,0c-2.5,0-3.8,1-4.9,1.8
	C626.2,2.5,625.5,3,624,3c-1.5,0-2.2-0.5-3.1-1.2C619.8,1,618.5,0,616,0c-2.5,0-3.8,1-4.9,1.8C610.2,2.5,609.5,3,608,3
	c-1.5,0-2.2-0.5-3.1-1.2C603.8,1,602.5,0,600,0c-2.5,0-3.8,1-4.9,1.8C594.2,2.5,593.5,3,592,3c-1.5,0-2.2-0.5-3.1-1.2
	C587.8,1,586.5,0,584,0s-3.8,1-4.9,1.8C578.2,2.5,577.5,3,576,3c-1.5,0-2.2-0.5-3.1-1.2C571.8,1,570.5,0,568,0c-2.5,0-3.8,1-4.9,1.8
	C562.2,2.5,561.5,3,560,3s-2.2-0.5-3.1-1.2C555.8,1,554.5,0,552,0c-2.5,0-3.8,1-4.9,1.8C546.2,2.5,545.5,3,544,3
	c-1.5,0-2.2-0.5-3.1-1.2C539.8,1,538.5,0,536,0s-3.8,1-4.9,1.8C530.2,2.5,529.5,3,528,3c-1.5,0-2.2-0.5-3.1-1.2
	C523.8,1,522.5,0,520,0c-2.5,0-3.8,1-4.9,1.8C514.2,2.5,513.5,3,512,3c-1.5,0-2.2-0.5-3.1-1.2C507.8,1,506.5,0,504,0
	c-2.5,0-3.8,1-4.9,1.8C498.2,2.5,497.5,3,496,3c-1.5,0-2.2-0.5-3.1-1.2C491.8,1,490.5,0,488,0c-2.5,0-3.8,1-4.9,1.8
	C482.2,2.5,481.5,3,480,3s-2.2-0.5-3.1-1.2C475.8,1,474.5,0,472,0c-2.5,0-3.8,1-4.9,1.8C466.2,2.5,465.5,3,464,3
	c-1.5,0-2.2-0.5-3.1-1.2C459.8,1,458.5,0,456,0c-2.5,0-3.8,1-4.9,1.8C450.2,2.5,449.5,3,448,3c-1.5,0-2.2-0.5-3.1-1.2
	C443.8,1,442.5,0,440,0c-2.5,0-3.8,1-4.9,1.8C434.2,2.5,433.5,3,432,3s-2.2-0.5-3.1-1.2C427.8,1,426.5,0,424,0c-2.5,0-3.8,1-4.9,1.8
	C418.2,2.5,417.5,3,416,3s-2.2-0.5-3.1-1.2C411.8,1,410.5,0,408,0c-2.5,0-3.8,1-4.9,1.8C402.2,2.5,401.5,3,400,3
	c-1.5,0-2.2-0.5-3.1-1.2C395.8,1,394.5,0,392,0c-2.5,0-3.8,1-4.9,1.8C386.2,2.5,385.5,3,384,3s-2.2-0.5-3.1-1.2
	C379.8,1,378.5,0,376,0c-2.5,0-3.8,1-4.9,1.8C370.2,2.5,369.5,3,368,3s-2.2-0.5-3.1-1.2C363.8,1,362.5,0,360,0c-2.5,0-3.8,1-4.9,1.8
	C354.2,2.5,353.5,3,352,3c-1.5,0-2.2-0.5-3.1-1.2C347.8,1,346.5,0,344,0c-2.5,0-3.8,1-4.9,1.8C338.2,2.5,337.5,3,336,3
	c-1.5,0-2.2-0.5-3.1-1.2C331.8,1,330.5,0,328,0s-3.8,1-4.9,1.8C322.2,2.5,321.5,3,320,3c-1.5,0-2.2-0.5-3.1-1.2
	C315.8,1,314.5,0,312,0c-2.5,0-3.8,1-4.9,1.8C306.2,2.5,305.5,3,304,3c-1.5,0-2.2-0.5-3.1-1.2C299.8,1,298.5,0,296,0
	c-2.5,0-3.8,1-4.9,1.8C290.2,2.5,289.5,3,288,3c-1.5,0-2.2-0.5-3.1-1.2C283.8,1,282.5,0,280,0c-2.5,0-3.8,1-4.9,1.8
	C274.2,2.5,273.5,3,272,3c-1.5,0-2.2-0.5-3.1-1.2C267.8,1,266.5,0,264,0c-2.5,0-3.8,1-4.9,1.8C258.2,2.5,257.5,3,256,3
	c-1.5,0-2.2-0.5-3.1-1.2C251.8,1,250.5,0,248,0c-2.5,0-3.8,1-4.9,1.8C242.1,2.5,241.5,3,240,3c-1.5,0-2.2-0.5-3.1-1.2
	C235.8,1,234.5,0,232,0c-2.5,0-3.8,1-4.9,1.8C226.1,2.5,225.5,3,224,3c-1.5,0-2.2-0.5-3.1-1.2C219.8,1,218.5,0,216,0
	c-2.5,0-3.8,1-4.9,1.8C210.1,2.5,209.5,3,208,3c-1.5,0-2.2-0.5-3.1-1.2C203.8,1,202.5,0,200,0c-2.5,0-3.8,1-4.9,1.8
	C194.1,2.5,193.5,3,192,3c-1.5,0-2.2-0.5-3.1-1.2C187.8,1,186.5,0,184,0s-3.8,1-4.9,1.8C178.1,2.5,177.5,3,176,3
	c-1.5,0-2.2-0.5-3.1-1.2C171.8,1,170.5,0,168,0c-2.5,0-3.8,1-4.9,1.8C162.1,2.5,161.5,3,160,3c-1.5,0-2.2-0.5-3.1-1.2
	C155.8,1,154.5,0,152,0c-2.5,0-3.8,1-4.9,1.8C146.1,2.5,145.5,3,144,3c-1.5,0-2.2-0.5-3.1-1.2C139.8,1,138.5,0,136,0
	c-2.5,0-3.8,1-4.9,1.8C130.1,2.5,129.5,3,128,3c-1.5,0-2.2-0.5-3.1-1.2C123.8,1,122.5,0,120,0c-2.5,0-3.8,1-4.9,1.8
	C114.2,2.5,113.5,3,112,3s-2.2-0.5-3.1-1.2C107.8,1,106.5,0,104,0c-2.5,0-3.8,1-4.9,1.8C98.2,2.5,97.5,3,96,3s-2.2-0.5-3.1-1.2
	C91.8,1,90.5,0,88,0c-2.5,0-3.8,1-4.9,1.8C82.2,2.5,81.5,3,80,3c-1.5,0-2.2-0.5-3.1-1.2C75.8,1,74.5,0,72,0c-2.5,0-3.8,1-4.9,1.8
	C66.2,2.5,65.5,3,64,3c-1.5,0-2.2-0.5-3.1-1.2C59.8,1,58.5,0,56,0c-2.5,0-3.8,1-4.9,1.8C50.2,2.5,49.5,3,48,3
	c-1.5,0-2.2-0.5-3.1-1.2C43.8,1,42.5,0,40,0c-2.5,0-3.8,1-4.9,1.8C34.2,2.5,33.5,3,32,3c-1.5,0-2.2-0.5-3.1-1.2C27.8,1,26.5,0,24,0
	s-3.8,1-4.9,1.8C18.2,2.5,17.5,3,16,3c-1.5,0-2.2-0.5-3.1-1.2C11.8,1,10.5,0,8,0S4.2,1,3.1,1.8C2.2,2.5,1.5,3,0,3v3
	c2.5,0,3.8-1,4.9-1.8C5.8,3.5,6.5,3,8,3c1.5,0,2.2,0.5,3.1,1.2C12.2,5,13.5,6,16,6s3.8-1,4.9-1.8C21.8,3.5,22.5,3,24,3
	c1.5,0,2.2,0.5,3.1,1.2C28.2,5,29.5,6,32,6s3.8-1,4.9-1.8C37.8,3.5,38.5,3,40,3c1.5,0,2.2,0.5,3.1,1.2C44.2,5,45.5,6,48,6
	c2.5,0,3.8-1,4.9-1.8C53.8,3.5,54.5,3,56,3c1.5,0,2.2,0.5,3.1,1.2C60.2,5,61.5,6,64,6c2.5,0,3.8-1,4.9-1.8C69.8,3.5,70.5,3,72,3
	c1.5,0,2.2,0.5,3.1,1.2C76.2,5,77.5,6,80,6c2.5,0,3.8-1,4.9-1.8C85.8,3.5,86.5,3,88,3c1.5,0,2.2,0.5,3.1,1.2C92.2,5,93.5,6,96,6
	s3.8-1,4.9-1.8c0.9-0.7,1.6-1.2,3.1-1.2s2.2,0.5,3.1,1.2C108.2,5,109.5,6,112,6c2.5,0,3.8-1,4.9-1.8c0.9-0.7,1.6-1.2,3.1-1.2
	c1.5,0,2.2,0.5,3.1,1.2C124.2,5,125.5,6,128,6c2.5,0,3.8-1,4.9-1.8c0.9-0.7,1.6-1.2,3.1-1.2c1.5,0,2.2,0.5,3.1,1.2
	C140.1,5,141.5,6,144,6c2.5,0,3.8-1,4.9-1.8c0.9-0.7,1.6-1.2,3.1-1.2c1.5,0,2.2,0.5,3.1,1.2C156.1,5,157.5,6,160,6
	c2.5,0,3.8-1,4.9-1.8c0.9-0.7,1.6-1.2,3.1-1.2c1.5,0,2.2,0.5,3.1,1.2C172.1,5,173.5,6,176,6c2.5,0,3.8-1,4.9-1.8
	c0.9-0.7,1.6-1.2,3.1-1.2c1.5,0,2.2,0.5,3.1,1.2C188.1,5,189.5,6,192,6c2.5,0,3.8-1,4.9-1.8c0.9-0.7,1.6-1.2,3.1-1.2
	c1.5,0,2.2,0.5,3.1,1.2C204.1,5,205.5,6,208,6s3.8-1,4.9-1.8c0.9-0.7,1.6-1.2,3.1-1.2c1.5,0,2.2,0.5,3.1,1.2C220.1,5,221.5,6,224,6
	c2.5,0,3.8-1,4.9-1.8c0.9-0.7,1.6-1.2,3.1-1.2s2.2,0.5,3.1,1.2C236.1,5,237.5,6,240,6c2.5,0,3.8-1,4.9-1.8c0.9-0.7,1.6-1.2,3.1-1.2
	c1.5,0,2.2,0.5,3.1,1.2C252.1,5,253.5,6,256,6s3.8-1,4.9-1.8c0.9-0.7,1.6-1.2,3.1-1.2c1.5,0,2.2,0.5,3.1,1.2C268.2,5,269.5,6,272,6
	c2.5,0,3.8-1,4.9-1.8c0.9-0.7,1.6-1.2,3.1-1.2c1.5,0,2.2,0.5,3.1,1.2C284.2,5,285.5,6,288,6c2.5,0,3.8-1,4.9-1.8
	c0.9-0.7,1.6-1.2,3.1-1.2c1.5,0,2.2,0.5,3.1,1.2C300.2,5,301.5,6,304,6c2.5,0,3.8-1,4.9-1.8c0.9-0.7,1.6-1.2,3.1-1.2
	c1.5,0,2.2,0.5,3.1,1.2C316.2,5,317.5,6,320,6c2.5,0,3.8-1,4.9-1.8c0.9-0.7,1.6-1.2,3.1-1.2c1.5,0,2.2,0.5,3.1,1.2
	C332.2,5,333.5,6,336,6s3.8-1,4.9-1.8c0.9-0.7,1.6-1.2,3.1-1.2c1.5,0,2.2,0.5,3.1,1.2C348.2,5,349.5,6,352,6c2.5,0,3.8-1,4.9-1.8
	c0.9-0.7,1.6-1.2,3.1-1.2c1.5,0,2.2,0.5,3.1,1.2C364.2,5,365.5,6,368,6s3.8-1,4.9-1.8c0.9-0.7,1.6-1.2,3.1-1.2
	c1.5,0,2.2,0.5,3.1,1.2C380.2,5,381.5,6,384,6s3.8-1,4.9-1.8c0.9-0.7,1.6-1.2,3.1-1.2c1.5,0,2.2,0.5,3.1,1.2C396.2,5,397.5,6,400,6
	c2.5,0,3.8-1,4.9-1.8c0.9-0.7,1.6-1.2,3.1-1.2c1.5,0,2.2,0.5,3.1,1.2C412.2,5,413.5,6,416,6s3.8-1,4.9-1.8c0.9-0.7,1.6-1.2,3.1-1.2
	s2.2,0.5,3.1,1.2C428.2,5,429.5,6,432,6c2.5,0,3.8-1,4.9-1.8c0.9-0.7,1.6-1.2,3.1-1.2c1.5,0,2.2,0.5,3.1,1.2C444.2,5,445.5,6,448,6
	c2.5,0,3.8-1,4.9-1.8c0.9-0.7,1.6-1.2,3.1-1.2c1.5,0,2.2,0.5,3.1,1.2C460.2,5,461.5,6,464,6c2.5,0,3.8-1,4.9-1.8
	c0.9-0.7,1.6-1.2,3.1-1.2c1.5,0,2.2,0.5,3.1,1.2C476.2,5,477.5,6,480,6c2.5,0,3.8-1,4.9-1.8c0.9-0.7,1.6-1.2,3.1-1.2
	c1.5,0,2.2,0.5,3.1,1.2C492.2,5,493.5,6,496,6c2.5,0,3.8-1,4.9-1.8c0.9-0.7,1.6-1.2,3.1-1.2c1.5,0,2.2,0.5,3.1,1.2
	C508.2,5,509.5,6,512,6c2.5,0,3.8-1,4.9-1.8c0.9-0.7,1.6-1.2,3.1-1.2c1.5,0,2.2,0.5,3.1,1.2C524.2,5,525.5,6,528,6
	c2.5,0,3.8-1,4.9-1.8c0.9-0.7,1.6-1.2,3.1-1.2c1.5,0,2.2,0.5,3.1,1.2C540.2,5,541.5,6,544,6s3.8-1,4.9-1.8c0.9-0.7,1.6-1.2,3.1-1.2
	s2.2,0.5,3.1,1.2C556.2,5,557.5,6,560,6s3.8-1,4.9-1.8c0.9-0.7,1.6-1.2,3.1-1.2s2.2,0.5,3.1,1.2C572.2,5,573.5,6,576,6
	s3.8-1,4.9-1.8c0.9-0.7,1.6-1.2,3.1-1.2c1.5,0,2.2,0.5,3.1,1.2C588.2,5,589.5,6,592,6c2.5,0,3.8-1,4.9-1.8c0.9-0.7,1.6-1.2,3.1-1.2
	c1.5,0,2.2,0.5,3.1,1.2C604.2,5,605.5,6,608,6c2.5,0,3.8-1,4.9-1.8c0.9-0.7,1.6-1.2,3.1-1.2c1.5,0,2.2,0.5,3.1,1.2
	C620.2,5,621.5,6,624,6c2.5,0,3.8-1,4.9-1.8c0.9-0.7,1.6-1.2,3.1-1.2c1.5,0,2.2,0.5,3.1,1.2C636.2,5,637.5,6,640,6
	c2.5,0,3.8-1,4.9-1.8c0.9-0.7,1.6-1.2,3.1-1.2c1.5,0,2.2,0.5,3.1,1.2C652.2,5,653.5,6,656,6s3.8-1,4.9-1.8c0.9-0.7,1.6-1.2,3.1-1.2
	s2.2,0.5,3.1,1.2C668.2,5,669.5,6,672,6s3.8-1,4.9-1.8c0.9-0.7,1.6-1.2,3.1-1.2c1.5,0,2.2,0.5,3.1,1.2C684.2,5,685.5,6,688,6
	s3.8-1,4.9-1.8c0.9-0.7,1.6-1.2,3.1-1.2c1.5,0,2.2,0.5,3.1,1.2C700.2,5,701.5,6,704,6c2.5,0,3.8-1,4.9-1.8c0.9-0.7,1.6-1.2,3.1-1.2
	c1.5,0,2.2,0.5,3.1,1.2C716.2,5,717.5,6,720,6c2.5,0,3.8-1,4.9-1.8c0.9-0.7,1.6-1.2,3.1-1.2c1.5,0,2.2,0.5,3.1,1.2
	C732.2,5,733.5,6,736,6s3.8-1,4.9-1.8c0.9-0.7,1.6-1.2,3.1-1.2s2.2,0.5,3.1,1.2C748.2,5,749.5,6,752,6s3.8-1,4.9-1.8
	c0.9-0.7,1.6-1.2,3.1-1.2c1.5,0,2.2,0.5,3.1,1.2C764.2,5,765.5,6,768,6c2.5,0,3.8-1,4.9-1.8c0.9-0.7,1.6-1.2,3.1-1.2
	c1.5,0,2.2,0.5,3.1,1.2C780.2,5,781.5,6,784,6c2.5,0,3.8-1,4.9-1.8c0.9-0.7,1.6-1.2,3.1-1.2c1.5,0,2.2,0.5,3.1,1.2
	C796.2,5,797.5,6,800,6V3z"/>
</svg>
